{
  "accessors": [
    {
      "bufferView": 2,
      "componentType": 5126,
      "count": 65532,
      "max": [
        0.3633037805557251,
        0.9481261372566223,
        0.5585063695907593
      ],
      "min": [
        -0.3631089925765991,
        -0.9502341151237488,
        -0.4247986078262329
      ],
      "type": "VEC3"
    },
    {
      "bufferView": 2,
      "byteOffset": 786384,
      "componentType": 5126,
      "count": 65532,
      "max": [
        1.0,
        0.9999690055847168,
        1.0
      ],
      "min": [
        -0.9999690055847168,
        -1.0,
        -1.0
      ],
      "type": "VEC3"
    },
    {
      "bufferView": 3,
      "componentType": 5126,
      "count": 65532,
      "max": [
        0.9999992847442627,
        0.9999691247940063,
        1.0,
        1.0
      ],
      "min": [
        -0.9999966025352478,
        -0.9999985694885254,
        -0.9999939799308777,
        -1.0
      ],
      "type": "VEC4"
    },
    {
      "bufferView": 1,
      "componentType": 5126,
      "count": 65532,
      "max": [
        0.9999804496765137,
        0.9999729990959167
      ],
      "min": [
        3.380344787728973e-05,
        1.9550323486328125e-05
      ],
      "type": "VEC2"
    },
    {
      "bufferView": 1,
      "byteOffset": 524256,
      "componentType": 5126,
      "count": 65532,
      "max": [
        0.9999804496765137,
        0.9999729990959167
      ],
      "min": [
        3.380344787728973e-05,
        1.9550323486328125e-05
      ],
      "type": "VEC2"
    },
    {
      "bufferView": 1,
      "byteOffset": 1048512,
      "componentType": 5126,
      "count": 65532,
      "max": [
        0.9999804496765137,
        0.9999729990959167
      ],
      "min": [
        3.380344787728973e-05,
        1.9550323486328125e-05
      ],
      "type": "VEC2"
    },
    {
      "bufferView": 1,
      "byteOffset": 1572768,
      "componentType": 5126,
      "count": 65532,
      "max": [
        0.9999804496765137,
        0.9999729990959167
      ],
      "min": [
        3.380344787728973e-05,
        1.9550323486328125e-05
      ],
      "type": "VEC2"
    },
    {
      "bufferView": 1,
      "byteOffset": 2097024,
      "componentType": 5126,
      "count": 65532,
      "max": [
        0.9999804496765137,
        0.9999729990959167
      ],
      "min": [
        3.380344787728973e-05,
        1.9550323486328125e-05
      ],
      "type": "VEC2"
    },
    {
      "bufferView": 0,
      "componentType": 5125,
      "count": 335463,
      "type": "SCALAR"
    },
    {
      "bufferView": 2,
      "byteOffset": 1572768,
      "componentType": 5126,
      "count": 59731,
      "max": [
        0.3569307327270508,
        0.9468515515327454,
        0.0019645453430712223
      ],
      "min": [
        -0.3456120491027832,
        -0.33552366495132446,
        -0.5593280792236328
      ],
      "type": "VEC3"
    },
    {
      "bufferView": 2,
      "byteOffset": 2289540,
      "componentType": 5126,
      "count": 59731,
      "max": [
        1.0,
        0.9999380111694336,
        0.9999690055847168
      ],
      "min": [
        -0.9999690055847168,
        -0.9999690055847168,
        -0.9999690055847168
      ],
      "type": "VEC3"
    },
    {
      "bufferView": 3,
      "byteOffset": 1048512,
      "componentType": 5126,
      "count": 59731,
      "max": [
        0.9999878406524658,
        1.0,
        0.9999988675117493,
        1.0
      ],
      "min": [
        -0.9999887943267822,
        -0.9999895691871643,
        -0.9999872446060181,
        -1.0
      ],
      "type": "VEC4"
    },
    {
      "bufferView": 1,
      "byteOffset": 2621280,
      "componentType": 5126,
      "count": 59731,
      "max": [
        0.9941199421882629,
        0.9999729990959167
      ],
      "min": [
        0.0002779906790237874,
        0.0014846835983917117
      ],
      "type": "VEC2"
    },
    {
      "bufferView": 1,
      "byteOffset": 3099128,
      "componentType": 5126,
      "count": 59731,
      "max": [
        0.9941199421882629,
        0.9999729990959167
      ],
      "min": [
        0.0002779906790237874,
        0.0014846835983917117
      ],
      "type": "VEC2"
    },
    {
      "bufferView": 1,
      "byteOffset": 3576976,
      "componentType": 5126,
      "count": 59731,
      "max": [
        0.9941199421882629,
        0.9999729990959167
      ],
      "min": [
        0.0002779906790237874,
        0.0014846835983917117
      ],
      "type": "VEC2"
    },
    {
      "bufferView": 1,
      "byteOffset": 4054824,
      "componentType": 5126,
      "count": 59731,
      "max": [
        0.9941199421882629,
        0.9999729990959167
      ],
      "min": [
        0.0002779906790237874,
        0.0014846835983917117
      ],
      "type": "VEC2"
    },
    {
      "bufferView": 1,
      "byteOffset": 4532672,
      "componentType": 5126,
      "count": 59731,
      "max": [
        0.9941199421882629,
        0.9999729990959167
      ],
      "min": [
        0.0002779906790237874,
        0.0014846835983917117
      ],
      "type": "VEC2"
    },
    {
      "bufferView": 0,
      "byteOffset": 1341852,
      "componentType": 5125,
      "count": 303933,
      "type": "SCALAR"
    }
  ],
  "asset": {
    "extras": {
      "author": "restore50 (https://sketchfab.com/restore50)",
      "license": "CC-BY-4.0 (http://creativecommons.org/licenses/by/4.0/)",
      "source": "https://sketchfab.com/3d-models/elegance-in-a-black-suit-b3a53394a0f24a019b02098de570d16d",
      "title": "Elegance in a Black Suit"
    },
    "generator": "Sketchfab-17.15.0",
    "version": "2.0"
  },
  "bufferViews": [
    {
      "buffer": 0,
      "byteLength": 2557584,
      "name": "floatBufferViews",
      "target": 34963
    },
    {
      "buffer": 0,
      "byteLength": 5010520,
      "byteOffset": 2557584,
      "byteStride": 8,
      "name": "floatBufferViews",
      "target": 34962
    },
    {
      "buffer": 0,
      "byteLength": 3006312,
      "byteOffset": 7568104,
      "byteStride": 12,
      "name": "floatBufferViews",
      "target": 34962
    },
    {
      "buffer": 0,
      "byteLength": 2004208,
      "byteOffset": 10574416,
      "byteStride": 16,
      "name": "floatBufferViews",
      "target": 34962
    }
  ],
  "buffers": [
    {
      "byteLength": 12578624,
      "uri": "scene.bin"
    }
  ],
  "images": [
    {
      "uri": "textures/material_0_baseColor.png"
    },
    {
      "uri": "textures/material_0_metallicRoughness.png"
    },
    {
      "uri": "textures/material_0_emissive.png"
    },
    {
      "uri": "textures/material_0_normal.png"
    }
  ],
  "materials": [
    {
      "doubleSided": true,
      "emissiveFactor": [
        1.0,
        1.0,
        1.0
      ],
      "emissiveTexture": {
        "index": 2,
        "texCoord": 2
      },
      "name": "material_0",
      "normalTexture": {
        "index": 3,
        "texCoord": 3
      },
      "pbrMetallicRoughness": {
        "baseColorTexture": {
          "index": 0
        },
        "metallicRoughnessTexture": {
          "index": 1,
          "texCoord": 1
        }
      }
    }
  ],
  "meshes": [
    {
      "name": "Object_0",
      "primitives": [
        {
          "attributes": {
            "NORMAL": 1,
            "POSITION": 0,
            "TANGENT": 2,
            "TEXCOORD_0": 3,
            "TEXCOORD_1": 4,
            "TEXCOORD_2": 5,
            "TEXCOORD_3": 6,
            "TEXCOORD_4": 7
          },
          "indices": 8,
          "material": 0,
          "mode": 4
        }
      ]
    },
    {
      "name": "Object_1",
      "primitives": [
        {
          "attributes": {
            "NORMAL": 10,
            "POSITION": 9,
            "TANGENT": 11,
            "TEXCOORD_0": 12,
            "TEXCOORD_1": 13,
            "TEXCOORD_2": 14,
            "TEXCOORD_3": 15,
            "TEXCOORD_4": 16
          },
          "indices": 17,
          "material": 0,
          "mode": 4
        }
      ]
    }
  ],
  "nodes": [
    {
      "children": [
        1
      ],
      "matrix": [
        1.0,
        0.0,
        0.0,
        0.0,
        0.0,
        2.220446049250313e-16,
        -1.0,
        0.0,
        0.0,
        1.0,
        2.220446049250313e-16,
        0.0,
        0.0,
        0.0,
        0.0,
        1.0
      ],
      "name": "Sketchfab_model"
    },
    {
      "children": [
        2
      ],
      "name": "root"
    },
    {
      "children": [
        3
      ],
      "matrix": [
        1.0,
        0.0,
        0.0,
        0.0,
        0.0,
        2.220446049250313e-16,
        1.0,
        0.0,
        0.0,
        -1.0,
        2.220446049250313e-16,
        0.0,
        0.0,
        0.0,
        0.0,
        1.0
      ],
      "name": "GLTF_SceneRootNode"
    },
    {
      "children": [
        4
      ],
      "name": "_1"
    },
    {
      "children": [
        5,
        6
      ],
      "name": "mesh_0_0"
    },
    {
      "mesh": 0,
      "name": "Object_5"
    },
    {
      "mesh": 1,
      "name": "Object_6"
    }
  ],
  "samplers": [
    {
      "magFilter": 9729,
      "minFilter": 9987,
      "wrapS": 10497,
      "wrapT": 10497
    }
  ],
  "scene": 0,
  "scenes": [
    {
      "name": "Sketchfab_Scene",
      "nodes": [
        0
      ]
    }
  ],
  "textures": [
    {
      "sampler": 0,
      "source": 0
    },
    {
      "sampler": 0,
      "source": 1
    },
    {
      "sampler": 0,
      "source": 2
    },
    {
      "sampler": 0,
      "source": 3
    }
  ]
}
