{
  "accessors": [
    {
      "bufferView": 2,
      "componentType": 5126,
      "count": 65532,
      "max": [
        0.9968199729919434,
        -0.41103801131248474,
        0.8072609901428223
      ],
      "min": [
        -0.9973440170288086,
        -0.9963849782943726,
        0.05933700129389763
      ],
      "type": "VEC3"
    },
    {
      "bufferView": 2,
      "byteOffset": 786384,
      "componentType": 5126,
      "count": 65532,
      "max": [
        0.9999996423721313,
        1.0,
        0.9999991655349731
      ],
      "min": [
        -1.0,
        -1.0,
        -0.9999911785125732
      ],
      "type": "VEC3"
    },
    {
      "bufferView": 3,
      "componentType": 5126,
      "count": 65532,
      "max": [
        1.0,
        0.9999826550483704,
        0.9999977350234985,
        1.0
      ],
      "min": [
        -1.0,
        -0.9999905228614807,
        -0.9999995231628418,
        -1.0
      ],
      "type": "VEC4"
    },
    {
      "bufferView": 1,
      "componentType": 5126,
      "count": 65532,
      "max": [
        0.9973689913749695,
        0.9999920129776001
      ],
      "min": [
        1.9999999949504854e-06,
        0.0025730133056640625
      ],
      "type": "VEC2"
    },
    {
      "bufferView": 1,
      "byteOffset": 524256,
      "componentType": 5126,
      "count": 65532,
      "max": [
        0.9973689913749695,
        0.9999920129776001
      ],
      "min": [
        1.9999999949504854e-06,
        0.0025730133056640625
      ],
      "type": "VEC2"
    },
    {
      "bufferView": 1,
      "byteOffset": 1048512,
      "componentType": 5126,
      "count": 65532,
      "max": [
        0.9973689913749695,
        0.9999920129776001
      ],
      "min": [
        1.9999999949504854e-06,
        0.0025730133056640625
      ],
      "type": "VEC2"
    },
    {
      "bufferView": 1,
      "byteOffset": 1572768,
      "componentType": 5126,
      "count": 65532,
      "max": [
        0.9973689913749695,
        0.9999920129776001
      ],
      "min": [
        1.9999999949504854e-06,
        0.0025730133056640625
      ],
      "type": "VEC2"
    },
    {
      "bufferView": 0,
      "componentType": 5125,
      "count": 349767,
      "type": "SCALAR"
    },
    {
      "bufferView": 2,
      "byteOffset": 1572768,
      "componentType": 5126,
      "count": 65532,
      "max": [
        0.9968230128288269,
        -0.39392200112342834,
        0.4997299909591675
      ],
      "min": [
        -0.9973559975624084,
        -0.9885550141334534,
        -0.009344000369310379
      ],
      "type": "VEC3"
    },
    {
      "bufferView": 2,
      "byteOffset": 2359152,
      "componentType": 5126,
      "count": 65532,
      "max": [
        0.9999996423721313,
        1.0,
        0.9999879598617554
      ],
      "min": [
        -0.9999998807907104,
        -1.0,
        -0.9999979734420776
      ],
      "type": "VEC3"
    },
    {
      "bufferView": 3,
      "byteOffset": 1048512,
      "componentType": 5126,
      "count": 65532,
      "max": [
        0.9999995827674866,
        0.9999987483024597,
        1.0,
        1.0
      ],
      "min": [
        -0.9999995827674866,
        -0.9999940395355225,
        -0.9999978542327881,
        -1.0
      ],
      "type": "VEC4"
    },
    {
      "bufferView": 1,
      "byteOffset": 2097024,
      "componentType": 5126,
      "count": 65532,
      "max": [
        0.9975060224533081,
        0.9985100030899048
      ],
      "min": [
        0.002930999966338277,
        0.0009899735450744629
      ],
      "type": "VEC2"
    },
    {
      "bufferView": 1,
      "byteOffset": 2621280,
      "componentType": 5126,
      "count": 65532,
      "max": [
        0.9975060224533081,
        0.9985100030899048
      ],
      "min": [
        0.002930999966338277,
        0.0009899735450744629
      ],
      "type": "VEC2"
    },
    {
      "bufferView": 1,
      "byteOffset": 3145536,
      "componentType": 5126,
      "count": 65532,
      "max": [
        0.9975060224533081,
        0.9985100030899048
      ],
      "min": [
        0.002930999966338277,
        0.0009899735450744629
      ],
      "type": "VEC2"
    },
    {
      "bufferView": 1,
      "byteOffset": 3669792,
      "componentType": 5126,
      "count": 65532,
      "max": [
        0.9975060224533081,
        0.9985100030899048
      ],
      "min": [
        0.002930999966338277,
        0.0009899735450744629
      ],
      "type": "VEC2"
    },
    {
      "bufferView": 0,
      "byteOffset": 1399068,
      "componentType": 5125,
      "count": 335235,
      "type": "SCALAR"
    },
    {
      "bufferView": 2,
      "byteOffset": 3145536,
      "componentType": 5126,
      "count": 65532,
      "max": [
        0.9967420101165771,
        0.17092399299144745,
        0.3046320080757141
      ],
      "min": [
        -0.9974690079689026,
        -0.9885339736938477,
        -0.07170099765062332
      ],
      "type": "VEC3"
    },
    {
      "bufferView": 2,
      "byteOffset": 3931920,
      "componentType": 5126,
      "count": 65532,
      "max": [
        0.9999995231628418,
        1.0,
        0.9999984502792358
      ],
      "min": [
        -0.9999986290931702,
        -1.0,
        -0.9999874234199524
      ],
      "type": "VEC3"
    },
    {
      "bufferView": 3,
      "byteOffset": 2097024,
      "componentType": 5126,
      "count": 65532,
      "max": [
        0.9999841451644897,
        0.9999768733978271,
        0.9999995827674866,
        1.0
      ],
      "min": [
        -0.9999998807907104,
        -0.9999584555625916,
        -0.9999874830245972,
        -1.0
      ],
      "type": "VEC4"
    },
    {
      "bufferView": 1,
      "byteOffset": 4194048,
      "componentType": 5126,
      "count": 65532,
      "max": [
        0.9974690079689026,
        0.9994699954986572
      ],
      "min": [
        5.400000009103678e-05,
        0.0019659996032714844
      ],
      "type": "VEC2"
    },
    {
      "bufferView": 1,
      "byteOffset": 4718304,
      "componentType": 5126,
      "count": 65532,
      "max": [
        0.9974690079689026,
        0.9994699954986572
      ],
      "min": [
        5.400000009103678e-05,
        0.0019659996032714844
      ],
      "type": "VEC2"
    },
    {
      "bufferView": 1,
      "byteOffset": 5242560,
      "componentType": 5126,
      "count": 65532,
      "max": [
        0.9974690079689026,
        0.9994699954986572
      ],
      "min": [
        5.400000009103678e-05,
        0.0019659996032714844
      ],
      "type": "VEC2"
    },
    {
      "bufferView": 1,
      "byteOffset": 5766816,
      "componentType": 5126,
      "count": 65532,
      "max": [
        0.9974690079689026,
        0.9994699954986572
      ],
      "min": [
        5.400000009103678e-05,
        0.0019659996032714844
      ],
      "type": "VEC2"
    },
    {
      "bufferView": 0,
      "byteOffset": 2740008,
      "componentType": 5125,
      "count": 334785,
      "type": "SCALAR"
    },
    {
      "bufferView": 2,
      "byteOffset": 4718304,
      "componentType": 5126,
      "count": 65532,
      "max": [
        0.9968900084495544,
        0.7632290124893188,
        0.08634400367736816
      ],
      "min": [
        -0.9971749782562256,
        -0.9893280267715454,
        -0.6245089769363403
      ],
      "type": "VEC3"
    },
    {
      "bufferView": 2,
      "byteOffset": 5504688,
      "componentType": 5126,
      "count": 65532,
      "max": [
        1.0,
        1.0,
        0.9999985694885254
      ],
      "min": [
        -0.9999998807907104,
        -1.0,
        -0.9999814629554749
      ],
      "type": "VEC3"
    },
    {
      "bufferView": 3,
      "byteOffset": 3145536,
      "componentType": 5126,
      "count": 65532,
      "max": [
        0.9999971389770508,
        0.9999963641166687,
        0.9999987483024597,
        1.0
      ],
      "min": [
        -0.9999926686286926,
        -0.9999986290931702,
        -0.9999975562095642,
        -1.0
      ],
      "type": "VEC4"
    },
    {
      "bufferView": 1,
      "byteOffset": 6291072,
      "componentType": 5126,
      "count": 65532,
      "max": [
        0.9936230182647705,
        0.9998670220375061
      ],
      "min": [
        0.0010659999679774046,
        0.0010229945182800293
      ],
      "type": "VEC2"
    },
    {
      "bufferView": 1,
      "byteOffset": 6815328,
      "componentType": 5126,
      "count": 65532,
      "max": [
        0.9936230182647705,
        0.9998670220375061
      ],
      "min": [
        0.0010659999679774046,
        0.0010229945182800293
      ],
      "type": "VEC2"
    },
    {
      "bufferView": 1,
      "byteOffset": 7339584,
      "componentType": 5126,
      "count": 65532,
      "max": [
        0.9936230182647705,
        0.9998670220375061
      ],
      "min": [
        0.0010659999679774046,
        0.0010229945182800293
      ],
      "type": "VEC2"
    },
    {
      "bufferView": 1,
      "byteOffset": 7863840,
      "componentType": 5126,
      "count": 65532,
      "max": [
        0.9936230182647705,
        0.9998670220375061
      ],
      "min": [
        0.0010659999679774046,
        0.0010229945182800293
      ],
      "type": "VEC2"
    },
    {
      "bufferView": 0,
      "byteOffset": 4079148,
      "componentType": 5125,
      "count": 334332,
      "type": "SCALAR"
    },
    {
      "bufferView": 2,
      "byteOffset": 6291072,
      "componentType": 5126,
      "count": 65532,
      "max": [
        0.9971269965171814,
        0.7125539779663086,
        0.01158399973064661
      ],
      "min": [
        -0.9973710179328918,
        -0.9896020293235779,
        -0.6237840056419373
      ],
      "type": "VEC3"
    },
    {
      "bufferView": 2,
      "byteOffset": 7077456,
      "componentType": 5126,
      "count": 65532,
      "max": [
        0.9999998807907104,
        1.0,
        0.9999948740005493
      ],
      "min": [
        -0.9999980926513672,
        -1.0,
        -0.9999886751174927
      ],
      "type": "VEC3"
    },
    {
      "bufferView": 3,
      "byteOffset": 4194048,
      "componentType": 5126,
      "count": 65532,
      "max": [
        0.9999963641166687,
        0.9999960064888,
        1.0,
        1.0
      ],
      "min": [
        -0.9999905228614807,
        -0.9999455809593201,
        -1.0,
        -1.0
      ],
      "type": "VEC4"
    },
    {
      "bufferView": 1,
      "byteOffset": 8388096,
      "componentType": 5126,
      "count": 65532,
      "max": [
        0.9974790215492249,
        0.9998679757118225
      ],
      "min": [
        0.00018699999782256782,
        0.001145005226135254
      ],
      "type": "VEC2"
    },
    {
      "bufferView": 1,
      "byteOffset": 8912352,
      "componentType": 5126,
      "count": 65532,
      "max": [
        0.9974790215492249,
        0.9998679757118225
      ],
      "min": [
        0.00018699999782256782,
        0.001145005226135254
      ],
      "type": "VEC2"
    },
    {
      "bufferView": 1,
      "byteOffset": 9436608,
      "componentType": 5126,
      "count": 65532,
      "max": [
        0.9974790215492249,
        0.9998679757118225
      ],
      "min": [
        0.00018699999782256782,
        0.001145005226135254
      ],
      "type": "VEC2"
    },
    {
      "bufferView": 1,
      "byteOffset": 9960864,
      "componentType": 5126,
      "count": 65532,
      "max": [
        0.9974790215492249,
        0.9998679757118225
      ],
      "min": [
        0.00018699999782256782,
        0.001145005226135254
      ],
      "type": "VEC2"
    },
    {
      "bufferView": 0,
      "byteOffset": 5416476,
      "componentType": 5125,
      "count": 332100,
      "type": "SCALAR"
    },
    {
      "bufferView": 2,
      "byteOffset": 7863840,
      "componentType": 5126,
      "count": 65532,
      "max": [
        0.9972040057182312,
        -0.1780170053243637,
        -0.37729600071907043
      ],
      "min": [
        -0.9972569942474365,
        -0.9959920048713684,
        -0.8093100190162659
      ],
      "type": "VEC3"
    },
    {
      "bufferView": 2,
      "byteOffset": 8650224,
      "componentType": 5126,
      "count": 65532,
      "max": [
        0.9999978542327881,
        1.0,
        0.9999994039535522
      ],
      "min": [
        -0.9999949932098389,
        -1.0,
        -0.9999998807907104
      ],
      "type": "VEC3"
    },
    {
      "bufferView": 3,
      "byteOffset": 5242560,
      "componentType": 5126,
      "count": 65532,
      "max": [
        1.0,
        0.9999926090240479,
        0.999998927116394,
        1.0
      ],
      "min": [
        -0.999999463558197,
        -0.9999908804893494,
        -0.9999986290931702,
        -1.0
      ],
      "type": "VEC4"
    },
    {
      "bufferView": 1,
      "byteOffset": 10485120,
      "componentType": 5126,
      "count": 65532,
      "max": [
        0.999970018863678,
        0.9998390078544617
      ],
      "min": [
        0.0010029999539256096,
        0.0010660290718078613
      ],
      "type": "VEC2"
    },
    {
      "bufferView": 1,
      "byteOffset": 11009376,
      "componentType": 5126,
      "count": 65532,
      "max": [
        0.999970018863678,
        0.9998390078544617
      ],
      "min": [
        0.0010029999539256096,
        0.0010660290718078613
      ],
      "type": "VEC2"
    },
    {
      "bufferView": 1,
      "byteOffset": 11533632,
      "componentType": 5126,
      "count": 65532,
      "max": [
        0.999970018863678,
        0.9998390078544617
      ],
      "min": [
        0.0010029999539256096,
        0.0010660290718078613
      ],
      "type": "VEC2"
    },
    {
      "bufferView": 1,
      "byteOffset": 12057888,
      "componentType": 5126,
      "count": 65532,
      "max": [
        0.999970018863678,
        0.9998390078544617
      ],
      "min": [
        0.0010029999539256096,
        0.0010660290718078613
      ],
      "type": "VEC2"
    },
    {
      "bufferView": 0,
      "byteOffset": 6744876,
      "componentType": 5125,
      "count": 343935,
      "type": "SCALAR"
    },
    {
      "bufferView": 2,
      "byteOffset": 9436608,
      "componentType": 5126,
      "count": 65532,
      "max": [
        0.9967719912528992,
        0.9246500134468079,
        0.02974800020456314
      ],
      "min": [
        -0.9973099827766418,
        -0.9883049726486206,
        -0.45632898807525635
      ],
      "type": "VEC3"
    },
    {
      "bufferView": 2,
      "byteOffset": 10222992,
      "componentType": 5126,
      "count": 65532,
      "max": [
        0.9999997615814209,
        1.0,
        0.9999898672103882
      ],
      "min": [
        -0.9999997615814209,
        -1.0,
        -0.9999973773956299
      ],
      "type": "VEC3"
    },
    {
      "bufferView": 3,
      "byteOffset": 6291072,
      "componentType": 5126,
      "count": 65532,
      "max": [
        0.9999998807907104,
        0.9999212622642517,
        0.9999999403953552,
        1.0
      ],
      "min": [
        -0.9999998211860657,
        -0.9999939799308777,
        -0.9999989867210388,
        -1.0
      ],
      "type": "VEC4"
    },
    {
      "bufferView": 1,
      "byteOffset": 12582144,
      "componentType": 5126,
      "count": 65532,
      "max": [
        0.9984620213508606,
        0.999970018863678
      ],
      "min": [
        0.0011370000429451466,
        0.001556992530822754
      ],
      "type": "VEC2"
    },
    {
      "bufferView": 1,
      "byteOffset": 13106400,
      "componentType": 5126,
      "count": 65532,
      "max": [
        0.9984620213508606,
        0.999970018863678
      ],
      "min": [
        0.0011370000429451466,
        0.001556992530822754
      ],
      "type": "VEC2"
    },
    {
      "bufferView": 1,
      "byteOffset": 13630656,
      "componentType": 5126,
      "count": 65532,
      "max": [
        0.9984620213508606,
        0.999970018863678
      ],
      "min": [
        0.0011370000429451466,
        0.001556992530822754
      ],
      "type": "VEC2"
    },
    {
      "bufferView": 1,
      "byteOffset": 14154912,
      "componentType": 5126,
      "count": 65532,
      "max": [
        0.9984620213508606,
        0.999970018863678
      ],
      "min": [
        0.0011370000429451466,
        0.001556992530822754
      ],
      "type": "VEC2"
    },
    {
      "bufferView": 0,
      "byteOffset": 8120616,
      "componentType": 5125,
      "count": 321756,
      "type": "SCALAR"
    },
    {
      "bufferView": 2,
      "byteOffset": 11009376,
      "componentType": 5126,
      "count": 37678,
      "max": [
        0.996753990650177,
        0.9886890053749084,
        0.07180000096559525
      ],
      "min": [
        -0.9974480271339417,
        -0.9885339736938477,
        -0.12885700166225433
      ],
      "type": "VEC3"
    },
    {
      "bufferView": 2,
      "byteOffset": 11461512,
      "componentType": 5126,
      "count": 37678,
      "max": [
        0.9999986886978149,
        0.9999998807907104,
        0.9999607801437378
      ],
      "min": [
        -0.9999996423721313,
        -1.0,
        -0.999992847442627
      ],
      "type": "VEC3"
    },
    {
      "bufferView": 3,
      "byteOffset": 7339584,
      "componentType": 5126,
      "count": 37678,
      "max": [
        0.9999421238899231,
        0.9999950528144836,
        0.9999972581863403,
        1.0
      ],
      "min": [
        -0.9999998211860657,
        -0.9998917579650879,
        -0.9999754428863525,
        -1.0
      ],
      "type": "VEC4"
    },
    {
      "bufferView": 1,
      "byteOffset": 14679168,
      "componentType": 5126,
      "count": 37678,
      "max": [
        0.999858021736145,
        0.9993270039558411
      ],
      "min": [
        0.0014750000555068254,
        0.0014989972114562988
      ],
      "type": "VEC2"
    },
    {
      "bufferView": 1,
      "byteOffset": 14980592,
      "componentType": 5126,
      "count": 37678,
      "max": [
        0.999858021736145,
        0.9993270039558411
      ],
      "min": [
        0.0014750000555068254,
        0.0014989972114562988
      ],
      "type": "VEC2"
    },
    {
      "bufferView": 1,
      "byteOffset": 15282016,
      "componentType": 5126,
      "count": 37678,
      "max": [
        0.999858021736145,
        0.9993270039558411
      ],
      "min": [
        0.0014750000555068254,
        0.0014989972114562988
      ],
      "type": "VEC2"
    },
    {
      "bufferView": 1,
      "byteOffset": 15583440,
      "componentType": 5126,
      "count": 37678,
      "max": [
        0.999858021736145,
        0.9993270039558411
      ],
      "min": [
        0.0014750000555068254,
        0.0014989972114562988
      ],
      "type": "VEC2"
    },
    {
      "bufferView": 0,
      "byteOffset": 9407640,
      "componentType": 5125,
      "count": 165930,
      "type": "SCALAR"
    }
  ],
  "asset": {
    "extras": {
      "author": "dragon_booster904 (https://sketchfab.com/dragon_booster904)",
      "license": "CC-BY-4.0 (http://creativecommons.org/licenses/by/4.0/)",
      "source": "https://sketchfab.com/3d-models/tugu-negara-monument-5eaa647f1068430da8eb9bdde72ec7e0",
      "title": "Tugu Negara Monument"
    },
    "generator": "Sketchfab-16.74.0",
    "version": "2.0"
  },
  "bufferViews": [
    {
      "buffer": 0,
      "byteLength": 10071360,
      "name": "floatBufferViews",
      "target": 34963
    },
    {
      "buffer": 0,
      "byteLength": 15884864,
      "byteOffset": 10071360,
      "byteStride": 8,
      "name": "floatBufferViews",
      "target": 34962
    },
    {
      "buffer": 0,
      "byteLength": 11913648,
      "byteOffset": 25956224,
      "byteStride": 12,
      "name": "floatBufferViews",
      "target": 34962
    },
    {
      "buffer": 0,
      "byteLength": 7942432,
      "byteOffset": 37869872,
      "byteStride": 16,
      "name": "floatBufferViews",
      "target": 34962
    }
  ],
  "buffers": [
    {
      "byteLength": 45812304,
      "uri": "scene.bin"
    }
  ],
  "images": [
    {
      "uri": "textures/material_0_baseColor.jpeg"
    },
    {
      "uri": "textures/material_0_metallicRoughness.png"
    },
    {
      "uri": "textures/material_0_normal.jpeg"
    }
  ],
  "materials": [
    {
      "doubleSided": true,
      "name": "material_0",
      "normalTexture": {
        "index": 2,
        "texCoord": 2
      },
      "pbrMetallicRoughness": {
        "baseColorTexture": {
          "index": 0
        },
        "metallicRoughnessTexture": {
          "index": 1,
          "texCoord": 1
        }
      }
    }
  ],
  "meshes": [
    {
      "name": "Object_0",
      "primitives": [
        {
          "attributes": {
            "NORMAL": 1,
            "POSITION": 0,
            "TANGENT": 2,
            "TEXCOORD_0": 3,
            "TEXCOORD_1": 4,
            "TEXCOORD_2": 5,
            "TEXCOORD_3": 6
          },
          "indices": 7,
          "material": 0,
          "mode": 4
        }
      ]
    },
    {
      "name": "Object_1",
      "primitives": [
        {
          "attributes": {
            "NORMAL": 9,
            "POSITION": 8,
            "TANGENT": 10,
            "TEXCOORD_0": 11,
            "TEXCOORD_1": 12,
            "TEXCOORD_2": 13,
            "TEXCOORD_3": 14
          },
          "indices": 15,
          "material": 0,
          "mode": 4
        }
      ]
    },
    {
      "name": "Object_2",
      "primitives": [
        {
          "attributes": {
            "NORMAL": 17,
            "POSITION": 16,
            "TANGENT": 18,
            "TEXCOORD_0": 19,
            "TEXCOORD_1": 20,
            "TEXCOORD_2": 21,
            "TEXCOORD_3": 22
          },
          "indices": 23,
          "material": 0,
          "mode": 4
        }
      ]
    },
    {
      "name": "Object_3",
      "primitives": [
        {
          "attributes": {
            "NORMAL": 25,
            "POSITION": 24,
            "TANGENT": 26,
            "TEXCOORD_0": 27,
            "TEXCOORD_1": 28,
            "TEXCOORD_2": 29,
            "TEXCOORD_3": 30
          },
          "indices": 31,
          "material": 0,
          "mode": 4
        }
      ]
    },
    {
      "name": "Object_4",
      "primitives": [
        {
          "attributes": {
            "NORMAL": 33,
            "POSITION": 32,
            "TANGENT": 34,
            "TEXCOORD_0": 35,
            "TEXCOORD_1": 36,
            "TEXCOORD_2": 37,
            "TEXCOORD_3": 38
          },
          "indices": 39,
          "material": 0,
          "mode": 4
        }
      ]
    },
    {
      "name": "Object_5",
      "primitives": [
        {
          "attributes": {
            "NORMAL": 41,
            "POSITION": 40,
            "TANGENT": 42,
            "TEXCOORD_0": 43,
            "TEXCOORD_1": 44,
            "TEXCOORD_2": 45,
            "TEXCOORD_3": 46
          },
          "indices": 47,
          "material": 0,
          "mode": 4
        }
      ]
    },
    {
      "name": "Object_6",
      "primitives": [
        {
          "attributes": {
            "NORMAL": 49,
            "POSITION": 48,
            "TANGENT": 50,
            "TEXCOORD_0": 51,
            "TEXCOORD_1": 52,
            "TEXCOORD_2": 53,
            "TEXCOORD_3": 54
          },
          "indices": 55,
          "material": 0,
          "mode": 4
        }
      ]
    },
    {
      "name": "Object_7",
      "primitives": [
        {
          "attributes": {
            "NORMAL": 57,
            "POSITION": 56,
            "TANGENT": 58,
            "TEXCOORD_0": 59,
            "TEXCOORD_1": 60,
            "TEXCOORD_2": 61,
            "TEXCOORD_3": 62
          },
          "indices": 63,
          "material": 0,
          "mode": 4
        }
      ]
    }
  ],
  "nodes": [
    {
      "children": [
        1
      ],
      "matrix": [
        1.0,
        0.0,
        0.0,
        0.0,
        0.0,
        2.220446049250313e-16,
        -1.0,
        0.0,
        0.0,
        1.0,
        2.220446049250313e-16,
        0.0,
        0.0,
        0.0,
        0.0,
        1.0
      ],
      "name": "Sketchfab_model"
    },
    {
      "children": [
        2
      ],
      "name": "root"
    },
    {
      "children": [
        3
      ],
      "matrix": [
        1.0,
        0.0,
        0.0,
        0.0,
        0.0,
        2.220446049250313e-16,
        1.0,
        0.0,
        0.0,
        -1.0,
        2.220446049250313e-16,
        0.0,
        0.0,
        0.0,
        0.0,
        1.0
      ],
      "name": "GLTF_SceneRootNode"
    },
    {
      "children": [
        4,
        5,
        6,
        7,
        8,
        9,
        10,
        11
      ],
      "name": "_0"
    },
    {
      "mesh": 0,
      "name": "Object_4"
    },
    {
      "mesh": 1,
      "name": "Object_5"
    },
    {
      "mesh": 2,
      "name": "Object_6"
    },
    {
      "mesh": 3,
      "name": "Object_7"
    },
    {
      "mesh": 4,
      "name": "Object_8"
    },
    {
      "mesh": 5,
      "name": "Object_9"
    },
    {
      "mesh": 6,
      "name": "Object_10"
    },
    {
      "mesh": 7,
      "name": "Object_11"
    }
  ],
  "samplers": [
    {
      "magFilter": 9729,
      "minFilter": 9987,
      "wrapS": 10497,
      "wrapT": 10497
    }
  ],
  "scene": 0,
  "scenes": [
    {
      "name": "Sketchfab_Scene",
      "nodes": [
        0
      ]
    }
  ],
  "textures": [
    {
      "sampler": 0,
      "source": 0
    },
    {
      "sampler": 0,
      "source": 1
    },
    {
      "sampler": 0,
      "source": 2
    }
  ]
}
