{"accessors":[{"bufferView":3,"componentType":5126,"count":2052,"max":[0.6166932582855225,1.1643275022506714,0.06179216504096985],"min":[-0.6166921257972717,0.9190788269042969,-0.08193423599004745],"type":"VEC3"},{"bufferView":3,"byteOffset":24624,"componentType":5126,"count":2052,"max":[0.9995526075363159,0.9677369594573975,0.9973335862159729],"min":[-0.9996946454048157,-0.9917235970497131,-0.9990313053131104],"type":"VEC3"},{"bufferView":4,"componentType":5126,"count":2052,"max":[0.9999727010726929,0.999999463558197,0.9998829960823059,1.0],"min":[-0.9999924898147583,-0.999999463558197,-1.0,1.0],"type":"VEC4"},{"bufferView":2,"componentType":5126,"count":2052,"max":[0.9915158748626709,0.9936521649360657],"min":[0.010467848740518093,0.010773062705993652],"type":"VEC2"},{"bufferView":2,"byteOffset":16416,"componentType":5126,"count":2052,"max":[0.0,1.0],"min":[0.0,1.0],"type":"VEC2"},{"bufferView":1,"componentType":5125,"count":8898,"type":"SCALAR"},{"bufferView":3,"byteOffset":49248,"componentType":5126,"count":2490,"max":[0.24841879308223724,1.2320003509521484,0.18809084594249725],"min":[-0.302562952041626,-0.004605293273925781,-0.20427992939949036],"type":"VEC3"},{"bufferView":3,"byteOffset":79128,"componentType":5126,"count":2490,"max":[0.9999483823776245,0.9992601871490479,0.9977679252624512],"min":[-0.9997761845588684,-0.9997367262840271,-0.9999837875366211],"type":"VEC3"},{"bufferView":4,"byteOffset":32832,"componentType":5126,"count":2490,"max":[0.9995442628860474,0.9998697638511658,0.9999151825904846,1.0],"min":[-0.9999760985374451,-0.9997437596321106,-0.9998840689659119,-1.0],"type":"VEC4"},{"bufferView":2,"byteOffset":32832,"componentType":5126,"count":2490,"max":[0.998046875,0.9931640625],"min":[0.0010251998901367188,0.0032825469970703125],"type":"VEC2"},{"bufferView":2,"byteOffset":52752,"componentType":5126,"count":2490,"max":[0.8767662644386292,0.9840388298034668],"min":[0.0,0.0],"type":"VEC2"},{"bufferView":1,"byteOffset":35592,"componentType":5125,"count":10242,"type":"SCALAR"},{"bufferView":3,"byteOffset":109008,"componentType":5126,"count":5304,"max":[0.5896745324134827,1.8713476657867432,0.2429160475730896],"min":[-0.5896748900413513,0.83649742603302,-0.32552775740623474],"type":"VEC3"},{"bufferView":3,"byteOffset":172656,"componentType":5126,"count":5304,"max":[0.9999423623085022,0.9997206330299377,0.9999567866325378],"min":[-0.9997714757919312,-0.999865710735321,-0.9998527765274048],"type":"VEC3"},{"bufferView":4,"byteOffset":72672,"componentType":5126,"count":5304,"max":[0.9999935626983643,0.9999977946281433,0.999796986579895,1.0],"min":[-0.9999991059303284,-0.9999608397483826,-0.9999939799308777,-1.0],"type":"VEC4"},{"bufferView":2,"byteOffset":72672,"componentType":5126,"count":5304,"max":[1.0,0.9990234375],"min":[0.0008487701416015625,0.0009479522705078125],"type":"VEC2"},{"bufferView":2,"byteOffset":115104,"componentType":5126,"count":5304,"max":[0.9973449110984802,0.9998779296875],"min":[0.0,0.0],"type":"VEC2"},{"bufferView":1,"byteOffset":76560,"componentType":5125,"count":21495,"type":"SCALAR"},{"bufferView":3,"byteOffset":236304,"componentType":5126,"count":1967,"max":[0.16200008988380432,1.9960753917694092,0.16080422699451447],"min":[-0.11116161197423935,1.6222420930862427,-0.14432576298713684],"type":"VEC3"},{"bufferView":3,"byteOffset":259908,"componentType":5126,"count":1967,"max":[0.9991986155509949,0.9993348121643066,0.9999411702156067],"min":[-0.9995526075363159,-0.9997239112854004,-0.9998567700386047],"type":"VEC3"},{"bufferView":4,"byteOffset":157536,"componentType":5126,"count":1967,"max":[1.0,0.9999995827674866,0.9997215270996094,1.0],"min":[-1.0,-0.999999463558197,-1.0,1.0],"type":"VEC4"},{"bufferView":2,"byteOffset":157536,"componentType":5126,"count":1967,"max":[0.9941709637641907,0.9843134880065918],"min":[0.002868739888072014,0.006256282329559326],"type":"VEC2"},{"bufferView":2,"byteOffset":173272,"componentType":5126,"count":1967,"max":[0.0,0.0],"min":[0.0,0.0],"type":"VEC2"},{"bufferView":1,"byteOffset":162540,"componentType":5125,"count":8160,"type":"SCALAR"},{"bufferView":3,"byteOffset":283512,"componentType":5126,"count":136,"max":[0.08674730360507965,1.8907079696655273,0.12359020859003067],"min":[-0.08674726635217667,1.8071579933166504,0.07483445107936859],"type":"VEC3"},{"bufferView":3,"byteOffset":285144,"componentType":5126,"count":136,"max":[0.984783411026001,0.8747971057891846,0.9869901537895203],"min":[-0.984783411026001,-0.7748128175735474,0.06530043482780457],"type":"VEC3"},{"bufferView":4,"byteOffset":189008,"componentType":5126,"count":136,"max":[0.9999655485153198,0.9999911785125732,0.9703245162963867,1.0],"min":[-0.5512841939926147,-0.9999762773513794,-0.9298697710037231,1.0],"type":"VEC4"},{"bufferView":2,"byteOffset":189008,"componentType":5126,"count":136,"max":[0.8930631279945374,0.9197973608970642],"min":[0.04055909812450409,0.06729328632354736],"type":"VEC2"},{"bufferView":2,"byteOffset":190096,"componentType":5126,"count":136,"max":[0.0,0.0],"min":[0.0,0.0],"type":"VEC2"},{"bufferView":1,"byteOffset":195180,"componentType":5125,"count":612,"type":"SCALAR"},{"bufferView":5,"componentType":5126,"count":85,"max":[39.37008285522461,39.370079040527344,39.37008285522461,0.0,39.37006378173828,39.36998748779297,39.370079040527344,0.0,39.370079040527344,39.36968994140625,39.370079040527344,0.0,61.86262512207031,43.13380432128906,44.2877197265625,1.0],"min":[-39.370079040527344,-39.308258056640625,-39.33296203613281,0.0,-38.555240631103516,-39.370079040527344,-39.36766052246094,0.0,-39.25898361206055,-39.274253845214844,-38.81752014160156,0.0,-70.78457641601562,-64.26451873779297,-67.6803207397461,1.0],"type":"MAT4"},{"bufferView":0,"componentType":5123,"count":2052,"type":"VEC4"},{"bufferView":4,"byteOffset":191184,"componentType":5126,"count":2052,"max":[1.0,0.49803921580314636,0.3137255012989044,0.0],"min":[0.35686275362968445,0.0,0.0,0.0],"type":"VEC4"},{"bufferView":0,"byteOffset":16416,"componentType":5123,"count":2490,"type":"VEC4"},{"bufferView":4,"byteOffset":224016,"componentType":5126,"count":2490,"max":[1.0,0.5,0.27843138575553894,0.0],"min":[0.4117647111415863,0.0,0.0,0.0],"type":"VEC4"},{"bufferView":0,"byteOffset":36336,"componentType":5123,"count":5304,"type":"VEC4"},{"bufferView":4,"byteOffset":263856,"componentType":5126,"count":5304,"max":[1.0,0.49803921580314636,0.32156863808631897,0.15294118225574493],"min":[0.32549020648002625,0.0,0.0,0.0],"type":"VEC4"},{"bufferView":0,"byteOffset":78768,"componentType":5123,"count":1967,"type":"VEC4"},{"bufferView":4,"byteOffset":348720,"componentType":5126,"count":1967,"max":[1.0,0.47058823704719543,0.16470588743686676,0.0],"min":[0.501960813999176,0.0,0.0,0.0],"type":"VEC4"},{"bufferView":0,"byteOffset":94504,"componentType":5123,"count":136,"type":"VEC4"},{"bufferView":4,"byteOffset":380192,"componentType":5126,"count":136,"max":[1.0,0.0,0.0,0.0],"min":[1.0,0.0,0.0,0.0],"type":"VEC4"}],"asset":{"extras":{"author":"6lucius (https://sketchfab.com/6lucius)","license":"CC-BY-4.0 (http://creativecommons.org/licenses/by/4.0/)","source":"https://sketchfab.com/3d-models/sas-cs2-agent-model-blue-7f18aaccd0ee4694a36646101a12339e","title":"SAS | CS2 Agent Model Blue"},"generator":"Sketchfab-15.53.0","version":"2.0"},"bufferViews":[{"buffer":0,"byteLength":95592,"byteStride":8,"name":"shortBufferViews","target":34962,"byteOffset":0},{"buffer":0,"byteLength":197628,"byteOffset":95592,"name":"floatBufferViews","target":34963},{"buffer":0,"byteLength":191184,"byteOffset":293220,"byteStride":8,"name":"floatBufferViews","target":34962},{"buffer":0,"byteLength":286776,"byteOffset":484404,"byteStride":12,"name":"floatBufferViews","target":34962},{"buffer":0,"byteLength":382368,"byteOffset":771180,"byteStride":16,"name":"floatBufferViews","target":34962},{"buffer":0,"byteLength":5440,"byteOffset":1153548,"name":"floatBufferViews"}],"buffers":[{"byteLength":1158988,"uri":"CounterTerrorist.bin"}],"extensionsUsed":["KHR_materials_specular"],"images":[{"uri":"../Textures/glove_hardknuckle_black.006_baseColor.png"},{"uri":"../Textures/glove_hardknuckle_black.006_metallicRoughness.png"},{"uri":"../Textures/glove_hardknuckle_black.006_normal.png"},{"uri":"../Textures/ctm_sas_bodylegs.004_baseColor.png"},{"uri":"../Textures/ctm_sas_bodylegs.004_metallicRoughness.png"},{"uri":"../Textures/ctm_sas_bodylegs.004_normal.png"},{"uri":"../Textures/ctm_sas_body.004_baseColor.png"},{"uri":"../Textures/ctm_sas_body.004_metallicRoughness.png"},{"uri":"../Textures/ctm_sas_body.004_normal.png"},{"uri":"../Textures/ctm_sas_head_gasmask.004_baseColor.png"},{"uri":"../Textures/ctm_sas_head_gasmask.004_metallicRoughness.png"},{"uri":"../Textures/ctm_sas_head_gasmask.004_normal.png"},{"uri":"../Textures/ctm_sas_lenses.004_metallicRoughness.png"},{"uri":"../Textures/ctm_sas_lenses.004_normal.png"}],"materials":[{"extensions":{"KHR_materials_specular":{"specularColorFactor":[1.0,1.0,1.0],"specularFactor":0.0}},"name":"glove_hardknuckle_black.006","normalTexture":{"index":2},"occlusionTexture":{"index":1},"pbrMetallicRoughness":{"baseColorTexture":{"index":0},"metallicRoughnessTexture":{"index":1}}},{"extensions":{"KHR_materials_specular":{"specularColorFactor":[1.0,1.0,1.0],"specularFactor":0.0}},"name":"ctm_sas_bodylegs.004","normalTexture":{"index":5},"occlusionTexture":{"index":4},"pbrMetallicRoughness":{"baseColorTexture":{"index":3},"metallicRoughnessTexture":{"index":4}}},{"extensions":{"KHR_materials_specular":{"specularColorFactor":[1.0,1.0,1.0],"specularFactor":0.0}},"name":"ctm_sas_body.004","normalTexture":{"index":8},"occlusionTexture":{"index":7},"pbrMetallicRoughness":{"baseColorTexture":{"index":6},"metallicRoughnessTexture":{"index":7}}},{"extensions":{"KHR_materials_specular":{"specularColorFactor":[1.0,1.0,1.0],"specularFactor":0.0}},"name":"ctm_sas_head_gasmask.004","normalTexture":{"index":11},"occlusionTexture":{"index":10},"pbrMetallicRoughness":{"baseColorTexture":{"index":9},"metallicRoughnessTexture":{"index":10}}},{"extensions":{"KHR_materials_specular":{"specularColorFactor":[1.0,1.0,1.0],"specularFactor":1.0}},"name":"ctm_sas_lenses.004","normalTexture":{"index":13},"occlusionTexture":{"index":12},"pbrMetallicRoughness":{"baseColorFactor":[0.2193708806454726,0.23173462436615347,0.25730578540798066,1.0],"metallicRoughnessTexture":{"index":12},"roughnessFactor":0.25}}],"meshes":[{"name":"Object_0","primitives":[{"attributes":{"JOINTS_0":31,"NORMAL":1,"POSITION":0,"TANGENT":2,"TEXCOORD_0":3,"TEXCOORD_1":4,"TEXCOORD_2":3,"TEXCOORD_3":3,"TEXCOORD_4":3,"TEXCOORD_5":3,"WEIGHTS_0":32},"indices":5,"material":0,"mode":4}]},{"name":"Object_1","primitives":[{"attributes":{"JOINTS_0":33,"NORMAL":7,"POSITION":6,"TANGENT":8,"TEXCOORD_0":9,"TEXCOORD_1":10,"TEXCOORD_2":9,"TEXCOORD_3":9,"TEXCOORD_4":9,"TEXCOORD_5":9,"WEIGHTS_0":34},"indices":11,"material":1,"mode":4}]},{"name":"Object_2","primitives":[{"attributes":{"JOINTS_0":35,"NORMAL":13,"POSITION":12,"TANGENT":14,"TEXCOORD_0":15,"TEXCOORD_1":16,"TEXCOORD_2":15,"TEXCOORD_3":15,"TEXCOORD_4":15,"TEXCOORD_5":15,"WEIGHTS_0":36},"indices":17,"material":2,"mode":4}]},{"name":"Object_3","primitives":[{"attributes":{"JOINTS_0":37,"NORMAL":19,"POSITION":18,"TANGENT":20,"TEXCOORD_0":21,"TEXCOORD_1":22,"TEXCOORD_2":21,"TEXCOORD_3":21,"TEXCOORD_4":21,"TEXCOORD_5":21,"WEIGHTS_0":38},"indices":23,"material":3,"mode":4}]},{"name":"Object_4","primitives":[{"attributes":{"JOINTS_0":39,"NORMAL":25,"POSITION":24,"TANGENT":26,"TEXCOORD_0":27,"TEXCOORD_1":28,"TEXCOORD_2":27,"TEXCOORD_3":27,"TEXCOORD_4":27,"WEIGHTS_0":40},"indices":29,"material":4,"mode":4}]}],"nodes":[{"children":[1],"matrix":[1.0,0.0,0.0,0.0,0.0,2.220446049250313e-16,-1.0,0.0,0.0,1.0,2.220446049250313e-16,0.0,0.0,0.0,0.0,1.0],"name":"Sketchfab_model"},{"children":[2],"name":"root"},{"children":[3],"matrix":[1.0,0.0,0.0,0.0,0.0,2.220446049250313e-16,1.0,0.0,0.0,-1.0,2.220446049250313e-16,0.0,0.0,0.0,0.0,1.0],"name":"GLTF_SceneRootNode"},{"children":[4],"matrix":[3.0279166399083037e-09,-1.5139578507117348e-08,0.02539999969303139,0.0,0.02539999969303572,3.0279166399083037e-09,-3.0279148351297766e-09,0.0,-3.0279148351297766e-09,0.02539999969303139,1.5139578868073053e-08,0.0,0.0,0.0,0.0,1.0],"name":"sas blue_85"},{"children":[5,7,8,9,10,11,6],"name":"GLTF_created_0"},{"children":[12,95],"name":"GLTF_created_0_rootJoint"},{"name":"model.001_84"},{"mesh":0,"name":"Object_7","skin":0},{"mesh":1,"name":"Object_8","skin":0},{"mesh":2,"name":"Object_9","skin":0},{"mesh":3,"name":"Object_10","skin":0},{"mesh":4,"name":"Object_11","skin":0},{"children":[13,82,88],"name":"pelvis_82","rotation":[-0.5000000596046448,0.5,-0.5,0.5],"translation":[-2.853550434112549,-4.547473508864641e-13,42.824825286865234]},{"children":[14],"name":"spine_0_68","rotation":[3.1468326255890133e-07,0.05770212784409523,0.9983338713645935,4.356508043201757e-09],"scale":[1.0,1.0000001192092896,1.0000100135803223],"translation":[1.4939644188416423e-08,-0.934195339679718,0.09050952643156052]},{"children":[15],"name":"spine_1_67","rotation":[-0.0586123913526535,5.911563238925055e-09,2.5287265614792886e-08,0.9982808232307434],"scale":[1.0,1.0000001192092896,1.0],"translation":[2.3841846541472478e-07,4.066318035125732,5.006791525374865e-06]},{"children":[16,78,79,80,81],"name":"spine_2_66","rotation":[0.45213714241981506,0.5436655282974243,0.45213693380355835,0.54366534948349],"scale":[0.9999998211860657,1.0000001192092896,1.0],"translation":[2.38421648646181e-07,4.744048118591309,3.1963006676960504e-06]},{"children":[17,21,49,77],"name":"spine_3_61","rotation":[-0.4353342354297638,-0.5572112202644348,-0.4353342652320862,0.5572108626365662],"scale":[0.9999999403953552,0.9999998211860657,1.0],"translation":[6.347836971282959,-3.170967102050781e-05,2.1391363134171115e-06]},{"children":[18,19,20],"name":"neck_0_3","rotation":[0.12174331396818161,-5.31824646543555e-08,-6.845043998282563e-08,0.9925616383552551],"scale":[1.0,0.9999998807907104,0.9999998807907104],"translation":[7.275104962900514e-07,6.515173435211182,-1.4305115655588452e-05]},{"name":"head_0_0","rotation":[0.418724000453949,0.5697987079620361,0.4187239110469818,0.5697981715202332],"scale":[1.0000001192092896,1.0,1.0],"translation":[7.152589205361437e-07,5.762228965759277,-5.126002179167699e-06]},{"name":"head_0_twist_1","rotation":[1.490114787117136e-08,-9.983125437429408e-13,9.237054887254945e-14,1.0],"scale":[1.0,1.0000001192092896,1.0],"translation":[2.384300614721724e-07,2.8810958862304688,1.0967252819682471e-05]},{"name":"jiggle_hood_2","rotation":[-0.6015385389328003,0.5833571553230286,0.3678959310054779,0.403111070394516],"scale":[0.9999998807907104,0.9999996423721313,1.0],"translation":[-0.010689499787986279,1.0223331451416016,-3.844536304473877]},{"children":[22],"name":"clavicle_l_31","rotation":[-0.15861177444458008,0.15109218657016754,-0.7605046629905701,0.6112660765647888],"scale":[0.9999997615814209,0.9999999403953552,0.9999998807907104],"translation":[1.2704949378967285,4.311567783355713,3.0053439140319824]},{"children":[23,47,48],"name":"arm_upper_l_30","rotation":[0.16408602893352509,0.14064869284629822,-0.30725809931755066,0.9267611503601074],"scale":[1.0000001192092896,1.0000001192092896,1.0000001192092896],"translation":[-6.133317947387695e-05,6.665444850921631,-1.2159347534179688e-05]},{"children":[24,45,46],"name":"arm_lower_l_27","rotation":[0.22053271532058716,-2.199452865170315e-06,-1.2680154668487376e-06,0.9753795862197876],"scale":[1.0,1.0,0.9999999403953552],"translation":[-9.772181510925293e-05,11.596590995788574,-2.06679105758667e-05]},{"children":[25,26,30,34,37,41],"name":"hand_l_24","rotation":[0.03596585988998413,0.684637725353241,-0.00252506323158741,0.7279912829399109],"scale":[0.9999999403953552,0.9999998211860657,1.0],"translation":[-0.0001894831657409668,11.48692798614502,1.919269561767578e-05]},{"name":"weapon_hand_l_4","rotation":[-1.0,-2.9243537937873043e-06,5.532056661650131e-07,1.4172404917189851e-05],"scale":[0.9999998807907104,0.9999996423721313,0.9999998807907104],"translation":[0.29536372423171997,2.7908413410186768,1.1234856843948364]},{"children":[27],"name":"finger_middle_meta_l_8","rotation":[-0.03644837439060211,0.04973677173256874,-0.05111900717020035,0.9967872500419617],"scale":[0.9999998807907104,0.9999998807907104,0.9999998211860657],"translation":[-0.2245388627052307,0.8077347874641418,0.015188787132501602]},{"children":[28],"name":"finger_middle_0_l_7","rotation":[0.21492710709571838,0.0260472409427166,-0.020900260657072067,0.9760590195655823],"scale":[1.0,1.000000238418579,1.0000001192092896],"translation":[5.6996941566467285e-06,3.265007257461548,-0.00023895129561424255]},{"children":[29],"name":"finger_middle_1_l_6","rotation":[0.17575378715991974,-0.0002457630180288106,0.013757530599832535,0.984338104724884],"scale":[1.0,0.9999998807907104,0.9999999403953552],"translation":[3.007054328918457e-05,2.0755417346954346,-0.00023037195205688477]},{"name":"finger_middle_2_l_5","rotation":[0.10749723017215729,-4.710560097009875e-05,0.003107651136815548,0.9942005276679993],"scale":[0.9999999403953552,0.9999999403953552,1.0000001192092896],"translation":[2.2143125534057617e-05,1.413125991821289,-0.00013859570026397705]},{"children":[31],"name":"finger_pinky_meta_l_12","rotation":[0.042475376278162,0.0007880253251641989,-0.17122268676757812,0.9843160510063171],"scale":[0.9999999403953552,0.9999998807907104,0.9999999403953552],"translation":[0.9892367124557495,0.562709629535675,0.12467806786298752]},{"children":[32],"name":"finger_pinky_0_l_11","rotation":[0.09448681026697159,-0.030610887333750725,-0.06402315199375153,0.9929935932159424],"scale":[1.0,1.0000001192092896,1.0],"translation":[2.4318695068359375e-05,2.7047383785247803,-0.00021864473819732666]},{"children":[33],"name":"finger_pinky_1_l_10","rotation":[0.17454944550991058,-0.0001325681951129809,0.007272069808095694,0.9846215844154358],"scale":[0.9999998807907104,0.9999997019767761,0.9999998807907104],"translation":[3.528594970703125e-05,1.5109647512435913,-0.00021778768859803677]},{"name":"finger_pinky_2_l_9","rotation":[0.023173023015260696,0.0009849386988207698,-0.011561471968889236,0.9996641874313354],"scale":[0.9999999403953552,1.0,0.9999999403953552],"translation":[4.0650367736816406e-05,0.8723629117012024,-0.00015919655561447144]},{"children":[35],"name":"finger_thumb_0_l_15","rotation":[0.038248397409915924,0.6119316220283508,0.3537128269672394,0.7063738703727722],"scale":[0.9999997615814209,0.9999997615814209,0.9999998807907104],"translation":[-1.1764583587646484,1.422995686531067,0.7413716316223145]},{"children":[36],"name":"finger_thumb_1_l_14","rotation":[0.2157088667154312,0.001702375360764563,-0.04953230917453766,0.9751991629600525],"scale":[1.0000001192092896,0.9999999403953552,1.0],"translation":[0.00014975666999816895,1.6986737251281738,-0.0001571178436279297]},{"name":"finger_thumb_2_l_13","rotation":[0.14981035888195038,0.00011756980529753491,0.003184029832482338,0.9887096285820007],"scale":[1.0000001192092896,0.9999998807907104,1.0],"translation":[0.00019532442092895508,1.5660699605941772,-7.665157318115234e-05]},{"children":[38],"name":"finger_index_meta_l_19","rotation":[-0.03533276170492172,0.1062774583697319,0.02300705946981907,0.9934422373771667],"scale":[0.9999998211860657,0.9999998211860657,0.9999999403953552],"translation":[-0.8736972808837891,0.8027350902557373,0.21476158499717712]},{"children":[39],"name":"finger_index_0_l_18","rotation":[0.24428439140319824,0.05266319587826729,0.0009162966161966324,0.9682721495628357],"scale":[1.0000001192092896,1.0000001192092896,1.000000238418579],"translation":[4.0531158447265625e-06,3.2903356552124023,-0.0001582503318786621]},{"children":[40],"name":"finger_index_1_l_17","rotation":[0.16455714404582977,6.582309288205579e-05,0.005592739675194025,0.9863517880439758],"scale":[1.0000001192092896,1.0000001192092896,0.9999998807907104],"translation":[2.288818359375e-05,1.9955382347106934,-0.00012040138244628906]},{"name":"finger_index_2_l_16","rotation":[0.006976979784667492,0.0018374132923781872,-0.01830023154616356,0.9998065233230591],"translation":[2.849102020263672e-05,1.2687935829162598,-8.618831634521484e-05]},{"children":[42],"name":"finger_ring_meta_l_23","rotation":[-0.0062146298587322235,0.03216514363884926,-0.10771050304174423,0.9936425089836121],"scale":[0.9999997615814209,1.0,0.9999999403953552],"translation":[0.4104490280151367,0.7116526365280151,0.05741886794567108]},{"children":[43],"name":"finger_ring_0_l_22","rotation":[0.20173972845077515,0.002317867474630475,-0.05484689772129059,0.9778996706008911],"scale":[1.0,0.9999999403953552,0.9999999403953552],"translation":[1.5437602996826172e-05,2.9875996112823486,-0.00025375932455062866]},{"children":[44],"name":"finger_ring_1_l_21","rotation":[0.1632784605026245,3.2449318609906186e-07,0.0002864306734409183,0.9865800142288208],"scale":[0.9999999403953552,1.0000001192092896,1.0],"translation":[4.458427429199219e-05,1.9107311964035034,-0.00019396841526031494]},{"name":"finger_ring_2_l_20","rotation":[0.06695836782455444,-0.0002193548425566405,0.004532515071332455,0.9977454543113708],"scale":[1.0000001192092896,1.0,1.0],"translation":[5.2094459533691406e-05,1.2803947925567627,-0.00015120208263397217]},{"name":"arm_lower_l_twist_25","rotation":[2.1979214182010764e-07,-2.7939679014821195e-08,-1.1827798118702049e-07,1.0],"scale":[0.9999999403953552,0.9999998807907104,1.0],"translation":[-0.00019213557243347168,3.8288750648498535,1.430511474609375e-05]},{"name":"arm_lower_l_twist1_26","rotation":[2.1979214182010764e-07,-2.7939679014821195e-08,-1.1827798118702049e-07,1.0],"scale":[0.9999999403953552,0.9999998807907104,1.0],"translation":[-0.00017733871936798096,7.657922744750977,1.0251998901367188e-05]},{"name":"arm_upper_l_twist_28","rotation":[1.6263220459222794e-07,-4.062429070472717e-06,1.1897644469627267e-07,1.0],"scale":[1.0000001192092896,1.0000001192092896,0.9999999403953552],"translation":[-0.00014913082122802734,3.8654251098632812,-4.127621650695801e-05]},{"name":"arm_upper_l_twist1_29","rotation":[3.819586709141731e-07,-3.698048885780736e-06,2.3003666171916848e-07,1.0],"scale":[1.0000001192092896,1.0,1.0],"translation":[-0.00014802813529968262,7.730987548828125,-3.331899642944336e-05]},{"children":[50],"name":"clavicle_r_59","rotation":[-0.7605051398277283,0.6112657189369202,-0.158610001206398,0.15109321475028992],"scale":[0.9999998807907104,0.9999998211860657,1.0],"translation":[-1.270486831665039,4.311509609222412,3.005347490310669]},{"children":[51,75,76],"name":"arm_upper_r_58","rotation":[-0.16408681869506836,-0.14064739644527435,-0.30725783109664917,0.926761269569397],"scale":[1.0,1.0,1.0000001192092896],"translation":[-2.8730370104312897e-05,6.665458679199219,-3.0994415283203125e-06]},{"children":[52,73,74],"name":"arm_lower_r_55","rotation":[-0.22053232789039612,2.4619123450975167e-06,-6.552527338499203e-07,0.9753797650337219],"translation":[-5.456805229187012e-05,11.596535682678223,1.5795230865478516e-05]},{"children":[53,54,58,62,66,69],"name":"hand_r_52","rotation":[-0.03596507012844086,-0.6846375465393066,-0.0025240876711905003,0.7279914617538452],"translation":[-0.00013359636068344116,11.486979484558105,1.5497207641601562e-06]},{"name":"weapon_hand_r_32","rotation":[1.0,5.1036488457612e-07,9.248033165931702e-07,1.5177766726992559e-05],"scale":[1.0,0.9999996423721313,1.0],"translation":[0.29537850618362427,2.7909677028656006,-1.1238163709640503]},{"children":[55],"name":"finger_middle_meta_r_36","rotation":[0.03644397482275963,-0.04973609372973442,-0.05111926421523094,0.996787428855896],"scale":[1.0,0.9999997019767761,1.0],"translation":[-0.22454625368118286,0.807705819606781,-0.01528780534863472]},{"children":[56],"name":"finger_middle_0_r_35","rotation":[-0.21492443978786469,-0.026047831401228905,-0.020900161936879158,0.9760595560073853],"scale":[1.0,0.9999999403953552,0.9999998211860657],"translation":[1.2233853340148926e-05,3.265029191970825,0.0002499409019947052]},{"children":[57],"name":"finger_middle_1_r_34","rotation":[-0.17575481534004211,0.000245734176132828,0.013757789507508278,0.9843378067016602],"scale":[0.9999999403953552,0.9999998807907104,0.9999998807907104],"translation":[5.0634145736694336e-05,2.0755388736724854,0.0002900734543800354]},{"name":"finger_middle_2_r_33","rotation":[-0.10749541968107224,4.7287187044275925e-05,0.003107143798843026,0.9942008256912231],"scale":[1.0,1.0,1.0000001192092896],"translation":[4.0918588638305664e-05,1.4130431413650513,0.0001989305019378662]},{"children":[59],"name":"finger_pinky_meta_r_40","rotation":[-0.0424780547618866,-0.0007879312615841627,-0.1712227612733841,0.9843158721923828],"scale":[1.0,0.9999998211860657,1.0],"translation":[0.9892483949661255,0.5627630352973938,-0.12472129613161087]},{"children":[60],"name":"finger_pinky_0_r_39","rotation":[-0.09448611736297607,0.03061087243258953,-0.06402338296175003,0.9929936528205872],"scale":[1.0,1.0,1.0000001192092896],"translation":[1.9788742065429688e-05,2.7048282623291016,0.00017210841178894043]},{"children":[61],"name":"finger_pinky_1_r_38","rotation":[-0.1745491325855255,0.0001325855264440179,0.007272562477737665,0.9846216440200806],"scale":[0.9999998807907104,0.9999998211860657,0.9999998807907104],"translation":[4.6253204345703125e-05,1.5109449625015259,0.0002022066619247198]},{"name":"finger_pinky_2_r_37","rotation":[-0.023175295442342758,-0.0009844702435657382,-0.011561623774468899,0.9996641278266907],"scale":[0.9999999403953552,0.9999999403953552,0.9999998807907104],"translation":[3.546476364135742e-05,0.8723547458648682,0.00017161667346954346]},{"children":[63],"name":"finger_index_meta_r_44","rotation":[0.035328950732946396,-0.10627757757902145,0.02300724945962429,0.9934424161911011],"scale":[0.9999999403953552,0.9999997615814209,1.0000001192092896],"translation":[-0.8736910820007324,0.8027228116989136,-0.21482551097869873]},{"children":[64],"name":"finger_index_0_r_43","rotation":[-0.24428340792655945,-0.052663370966911316,0.0009167850366793573,0.9682723879814148],"translation":[1.1324882507324219e-05,3.2903103828430176,0.00021478533744812012]},{"children":[65],"name":"finger_index_1_r_42","rotation":[-0.16455724835395813,-6.491682142950594e-05,0.005592531990259886,0.9863516688346863],"scale":[1.0,0.9999998211860657,0.9999998807907104],"translation":[7.367134094238281e-05,1.9955430030822754,0.00022721290588378906]},{"name":"finger_index_2_r_41","rotation":[3.163772271363996e-05,-0.001965251052752137,-0.018286505714058876,0.999830961227417],"scale":[1.0000001192092896,1.0000001192092896,1.0],"translation":[-4.291534423828125e-06,1.2687057256698608,5.8710575103759766e-05]},{"children":[67],"name":"finger_thumb_0_r_47","rotation":[-0.038251955062150955,-0.6119309067726135,0.35371309518814087,0.7063741683959961],"scale":[1.0,1.0,0.9999999403953552],"translation":[-1.176434874534607,1.4230257272720337,-0.7415127158164978]},{"children":[68],"name":"finger_thumb_1_r_46","rotation":[-0.21570688486099243,-0.001702217268757522,-0.04953194409608841,0.9751995801925659],"scale":[1.0,1.0,0.9999998807907104],"translation":[0.00018003582954406738,1.6987130641937256,0.00011539459228515625]},{"name":"finger_thumb_2_r_45","rotation":[-0.1498108208179474,-0.00011727197124855593,0.0031832021195441484,0.988709568977356],"scale":[1.0,0.9999998211860657,0.9999999403953552],"translation":[0.00011777877807617188,1.5661020278930664,7.30752944946289e-05]},{"children":[70],"name":"finger_ring_meta_r_51","rotation":[0.006213053595274687,-0.03216514363884926,-0.10771028697490692,0.9936424493789673],"scale":[0.9999999403953552,0.9999998211860657,1.0],"translation":[0.4104423522949219,0.7115972638130188,-0.05745062977075577]},{"children":[71],"name":"finger_ring_0_r_50","rotation":[-0.20174002647399902,-0.0023181072901934385,-0.05484693497419357,0.9778994917869568],"scale":[1.0,1.000000238418579,0.9999999403953552],"translation":[3.7610530853271484e-05,2.9876952171325684,0.00029931217432022095]},{"children":[72],"name":"finger_ring_1_r_49","rotation":[-0.16327932476997375,2.2456110571056342e-07,0.0002864895504899323,0.9865798354148865],"scale":[0.9999998211860657,0.9999998807907104,1.0000001192092896],"translation":[5.245208740234375e-05,1.9106404781341553,0.00021713972091674805]},{"name":"finger_ring_2_r_48","rotation":[-0.06695728003978729,0.00021854664373677224,0.004532343242317438,0.9977456331253052],"scale":[1.0000001192092896,1.0,0.9999998807907104],"translation":[8.809566497802734e-05,1.2801936864852905,0.00030912458896636963]},{"name":"arm_lower_r_twist_53","rotation":[-1.601874828338623e-07,1.73225998878479e-07,2.1047890186309814e-07,1.0],"scale":[1.0,1.0,1.0000001192092896],"translation":[-0.00012996792793273926,3.828913688659668,2.0265579223632812e-06]},{"name":"arm_lower_r_twist1_54","rotation":[-3.0174851417541504e-07,6.891786341611805e-08,-2.3283057704048815e-09,1.0],"scale":[1.0000001192092896,0.9999999403953552,1.0000001192092896],"translation":[-0.00012809038162231445,7.657962799072266,-5.960464477539062e-07]},{"name":"arm_upper_r_twist_56","rotation":[-1.8742865037779666e-08,1.6492558643221855e-06,4.330649971961975e-08,1.0],"scale":[0.9999999403953552,1.0,1.0000001192092896],"translation":[-7.396936416625977e-05,3.8654537200927734,2.6054680347442627e-05]},{"name":"arm_upper_r_twist1_57","rotation":[-2.0954756152491427e-08,1.646578311920166e-06,5.122274160385132e-08,1.0],"scale":[0.9999999403953552,1.0,1.0000001192092896],"translation":[-5.194544792175293e-05,7.731020927429199,2.0742416381835938e-05]},{"name":"jiggle_back_micropouches_60","rotation":[-0.5384676456451416,-0.6179475784301758,-0.36691296100616455,0.4399641156196594],"scale":[1.0000001192092896,1.000000238418579,0.9999999403953552],"translation":[0.7950583100318909,-0.10927893966436386,-6.6013264656066895]},{"name":"jiggle_front_micropouches_62","rotation":[-0.28190773725509644,-0.36669886112213135,-0.6061954498291016,0.6469830870628357],"scale":[0.9999998807907104,0.9999998211860657,0.9999999403953552],"translation":[-0.8698533773422241,5.186845779418945,5.650932788848877]},{"name":"jiggle_front_pouch_01_63","rotation":[-0.6319184899330139,-0.7201544642448425,-0.21823151409626007,0.18555733561515808],"scale":[1.0000001192092896,1.000000238418579,1.0],"translation":[-1.0580002069473267,3.8890511989593506,-8.370504379272461]},{"name":"jiggle_front_pouch_02_64","rotation":[-0.5678301453590393,-0.6106358766555786,-0.3900202810764313,0.39061111211776733],"scale":[1.0,0.9999996423721313,0.9999999403953552],"translation":[-1.4560245275497437,6.942310810089111,-4.2861762046813965]},{"name":"jiggle_radio_65","rotation":[-0.4693664312362671,-0.5089781284332275,-0.4598831534385681,0.5560070872306824],"scale":[1.0,0.9999998807907104,0.9999999403953552],"translation":[-0.7978144288063049,-6.914281368255615,3.627143383026123]},{"children":[83,86,87],"name":"leg_upper_l_74","rotation":[-0.018703341484069824,0.9911956191062927,0.00976088922470808,0.13071425259113312],"scale":[1.0,1.0000001192092896,1.0],"translation":[-3.694225788116455,3.771401882171631,0.9134812355041504]},{"children":[84],"name":"leg_lower_l_71","rotation":[0.06423292309045792,8.472157730921026e-08,-2.547188842072501e-07,0.9979349374771118],"scale":[1.0000001192092896,0.9999999403953552,1.0],"translation":[3.0100345611572266e-06,17.902944564819336,-2.769753336906433e-06]},{"children":[85],"name":"ankle_l_70","rotation":[0.017847757786512375,-0.8320593237876892,0.5543298125267029,0.00878844317048788],"scale":[1.0,0.9999995827674866,0.9999999403953552],"translation":[-4.038214683532715e-06,16.937223434448242,2.8014183044433594e-06]},{"name":"ball_l_69","rotation":[0.24762113392353058,-3.583994896416698e-07,1.2583504371832532e-07,0.968856930732727],"scale":[1.0,0.9999999403953552,1.0],"translation":[-7.675029337406158e-06,6.329631328582764,5.245208740234375e-06]},{"name":"leg_upper_l_twist_72","rotation":[-7.683411240577698e-09,2.200249582529068e-08,-1.5657860785722733e-08,1.0],"scale":[1.0,0.9999999403953552,1.0],"translation":[4.470348358154297e-06,5.967635154724121,1.5087425708770752e-07]},{"name":"leg_upper_l_twist1_73","rotation":[-5.3085390305795954e-08,2.2817403078079224e-08,-1.4650868251919746e-07,1.0],"scale":[1.0,0.9999999403953552,1.0],"translation":[2.7418136596679688e-06,11.935286521911621,3.166496753692627e-08]},{"children":[89,92,93,94],"name":"leg_upper_r_81","rotation":[0.009761039167642593,0.13071441650390625,-0.018703121691942215,0.9911956191062927],"scale":[0.9999998807907104,0.9999998807907104,0.9999999403953552],"translation":[3.694228172302246,3.7714426517486572,0.9134802222251892]},{"children":[90],"name":"leg_lower_r_77","rotation":[-0.06423283368349075,1.5137601394599187e-07,-2.682510000795446e-07,0.9979349374771118],"scale":[1.0000001192092896,1.0,1.000000238418579],"translation":[7.18235969543457e-06,17.9029483795166,4.92483377456665e-06]},{"children":[91],"name":"ankle_r_76","rotation":[-0.017848152667284012,0.832059383392334,0.5543298721313477,0.00878866296261549],"scale":[1.0,1.0,1.0000001192092896],"translation":[2.086162567138672e-06,16.937185287475586,-1.2665987014770508e-05]},{"name":"ball_r_75","rotation":[-0.24762119352817535,-1.7700686782973207e-07,8.270053797332366e-08,0.968856930732727],"scale":[1.0,0.9999999403953552,1.0],"translation":[-1.4884397387504578e-05,6.329651832580566,-1.1324882507324219e-05]},{"name":"leg_upper_r_twist_78","rotation":[6.426125054304066e-08,2.412998298950697e-07,-2.494780062534119e-07,1.0],"scale":[1.0000001192092896,1.0000001192092896,1.0000001192092896],"translation":[3.069639205932617e-06,5.967658519744873,3.948807716369629e-07]},{"name":"leg_upper_r_twist1_79","rotation":[6.17001134628481e-08,3.032618778320284e-08,-4.225875613883545e-07,1.0],"scale":[1.0000001192092896,1.0000001192092896,1.0000001192092896],"translation":[9.417533874511719e-06,11.93529224395752,1.3485550880432129e-06]},{"name":"jiggle_holster_80","rotation":[0.04995085299015045,0.7042531371116638,-0.6892626285552979,0.16263291239738464],"scale":[1.0000001192092896,0.9999998807907104,1.0],"translation":[4.984215259552002,4.588401794433594,0.8842782974243164]},{"name":"neutral_bone_83","rotation":[-8.557134556497203e-09,-3.0820626051308864e-08,-7.549790836947068e-08,1.0]}],"samplers":[{"magFilter":9729,"minFilter":9987,"wrapS":10497,"wrapT":10497}],"scene":0,"scenes":[{"name":"Sketchfab_Scene","nodes":[0]}],"skins":[{"inverseBindMatrices":30,"joints":[5,12,13,14,15,16,17,18,19,20,21,22,23,24,25,26,27,28,29,30,31,32,33,34,35,36,37,38,39,40,41,42,43,44,45,46,47,48,49,50,51,52,53,54,55,56,57,58,59,60,61,62,63,64,65,66,67,68,69,70,71,72,73,74,75,76,77,78,79,80,81,82,83,84,85,86,87,88,89,90,91,92,93,94,95],"skeleton":5}],"textures":[{"sampler":0,"source":0},{"sampler":0,"source":1},{"sampler":0,"source":2},{"sampler":0,"source":3},{"sampler":0,"source":4},{"sampler":0,"source":5},{"sampler":0,"source":6},{"sampler":0,"source":7},{"sampler":0,"source":8},{"sampler":0,"source":9},{"sampler":0,"source":10},{"sampler":0,"source":11},{"sampler":0,"source":12},{"sampler":0,"source":13}],"extras":{"codexImportNote":"Gameplay-irrelevant eye_test/tools_preview animations were removed; mesh, skin, rig, materials and textures are retained."}}